<svg xmlns="http://www.w3.org/2000/svg" width="1200" height="760" viewBox="0 0 1200 760">
  <defs>
    <linearGradient id="bg" x1="0" y1="0" x2="1" y2="1">
      <stop offset="0" stop-color="#f8fafc"/>
      <stop offset="1" stop-color="#e0f2fe"/>
    </linearGradient>
    <filter id="shadow" x="-20%" y="-20%" width="140%" height="140%">
      <feDropShadow dx="0" dy="18" stdDeviation="18" flood-color="#0f172a" flood-opacity="0.18"/>
    </filter>
  </defs>
  <rect width="1200" height="760" fill="url(#bg)"/>
  <rect x="86" y="76" width="1028" height="608" rx="34" fill="#ffffff" filter="url(#shadow)"/>
  <rect x="86" y="76" width="1028" height="74" rx="34" fill="#f8fafc"/>
  <circle cx="132" cy="113" r="13" fill="#ef4444"/>
  <circle cx="170" cy="113" r="13" fill="#f59e0b"/>
  <circle cx="208" cy="113" r="13" fill="#22c55e"/>
  <rect x="268" y="98" width="362" height="28" rx="14" fill="#e2e8f0"/>
  <rect x="930" y="98" width="124" height="28" rx="14" fill="#7c3aed" opacity="0.16"/>
  <rect x="128" y="190" width="312" height="402" rx="26" fill="#7c3aed" opacity="0.13"/>
  <circle cx="284" cy="315" r="84" fill="#7c3aed" opacity="0.22"/>
  <rect x="178" y="440" width="212" height="22" rx="11" fill="#7c3aed" opacity="0.45"/>
  <rect x="178" y="480" width="150" height="18" rx="9" fill="#94a3b8" opacity="0.45"/>
  <rect x="492" y="198" width="514" height="34" rx="17" fill="#cbd5e1" opacity="0.62"/>
  <text x="492" y="298" font-family="Arial, sans-serif" font-size="46" font-weight="800" fill="#0f172a">Purchasing System - Approval</text>
  <text x="494" y="352" font-family="Arial, sans-serif" font-size="24" fill="#475569">Alur approval bertingkat termasuk notifikasi WhatsApp Bot.</text>
  <rect x="494" y="398" width="146" height="44" rx="22" fill="#7c3aed"/>
  <text x="529" y="427" font-family="Arial, sans-serif" font-size="16" font-weight="700" fill="#ffffff">Preview</text>
  <rect x="670" y="398" width="164" height="44" rx="22" fill="#f1f5f9" stroke="#cbd5e1"/>
  <text x="704" y="427" font-family="Arial, sans-serif" font-size="16" font-weight="700" fill="#334155">Detail</text>
  <rect x="494" y="488" width="154" height="104" rx="18" fill="#06b6d4" opacity="0.15"/>
  <rect x="678" y="488" width="154" height="104" rx="18" fill="#7c3aed" opacity="0.14"/>
  <rect x="862" y="488" width="154" height="104" rx="18" fill="#f59e0b" opacity="0.16"/>
  <text x="526" y="548" font-family="Arial, sans-serif" font-size="18" font-weight="700" fill="#334155">UI</text>
  <text x="714" y="548" font-family="Arial, sans-serif" font-size="18" font-weight="700" fill="#334155">API</text>
  <text x="894" y="548" font-family="Arial, sans-serif" font-size="18" font-weight="700" fill="#334155">Data</text>
</svg>